<svg width="32" height="32" viewBox="0 0 32 32" fill="none" xmlns="http://www.w3.org/2000/svg">
  <defs>
    <linearGradient id="logoGradient" x1="0%" y1="0%" x2="100%" y2="100%">
      <stop offset="0%" style="stop-color:#667eea;stop-opacity:1" />
      <stop offset="100%" style="stop-color:#764ba2;stop-opacity:1" />
    </linearGradient>
  </defs>
  
  <!-- Outer ring -->
  <circle cx="16" cy="16" r="15" stroke="url(#logoGradient)" stroke-width="2" fill="none"/>
  
  <!-- Inner hexagon representing connection/network -->
  <polygon points="16,6 22,10 22,18 16,22 10,18 10,10" stroke="url(#logoGradient)" stroke-width="1.5" fill="rgba(102, 126, 234, 0.1)"/>
  
  <!-- Central node -->
  <circle cx="16" cy="16" r="3" fill="url(#logoGradient)"/>
  
  <!-- Connection lines (representing nexus/network) -->
  <line x1="16" y1="6" x2="16" y2="13" stroke="url(#logoGradient)" stroke-width="1.5"/>
  <line x1="22" y1="10" x2="19" y2="14" stroke="url(#logoGradient)" stroke-width="1.5"/>
  <line x1="22" y1="18" x2="19" y2="16" stroke="url(#logoGradient)" stroke-width="1.5"/>
  <line x1="16" y1="22" x2="16" y2="19" stroke="url(#logoGradient)" stroke-width="1.5"/>
  <line x1="10" y1="18" x2="13" y2="16" stroke="url(#logoGradient)" stroke-width="1.5"/>
  <line x1="10" y1="10" x2="13" y2="14" stroke="url(#logoGradient)" stroke-width="1.5"/>
  
  <!-- Small dots representing connected nodes -->
  <circle cx="16" cy="6" r="1.5" fill="url(#logoGradient)"/>
  <circle cx="22" cy="10" r="1.5" fill="url(#logoGradient)"/>
  <circle cx="22" cy="18" r="1.5" fill="url(#logoGradient)"/>
  <circle cx="16" cy="22" r="1.5" fill="url(#logoGradient)"/>
  <circle cx="10" cy="18" r="1.5" fill="url(#logoGradient)"/>
  <circle cx="10" cy="10" r="1.5" fill="url(#logoGradient)"/>
</svg>
